<svg xmlns="http://www.w3.org/2000/svg" display="none">
  <symbol id="icon-gamekeller" viewBox="0 0 512 512">
    <path d="M256 512c141.385 0 256-114.615 256-256S397.385 0 256 0H0v256c0 141.385 114.615 256 256 256zm0-52c112.666 0 204-91.334 204-204S368.666 52 256 52 52 143.334 52 256s91.334 204 204 204zm5-57c79.529 0 115-47 115-47 .05 0 0-97 0-97H254v45l68 1v24c-22.08 14.31-44.435 19.345-61 19-48-1-89-38-88-89s44.01-86.956 88-86c46 1 73 26 73 26l35-39c-26.475-29.15-66.153-45-108-45-79.529 0-144 64.471-144 144s64.471 144 144 144z" fill-rule="evenodd"/>
  </symbol>
  {% if page.include-social-icons %}
  <symbol id="icon-twitter" viewBox="0 0 1024 1024">
    <path d="M0 786.286v-548.571q0-68 48.286-116.286t116.286-48.286h548.571q68 0 116.286 48.286t48.286 116.286v548.571q0 68-48.286 116.286t-116.286 48.286h-548.571q-68 0-116.286-48.286t-48.286-116.286zM146.286 714.286q84.571 53.714 184 53.714 64 0 120-20.286t96-54.286 68.857-78.286 42.857-92.571 14-96.286q0-10.286-0.571-15.429 36-25.714 60-62.286-32 14.286-69.143 19.429 38.857-22.857 53.143-66.857-37.143 21.714-76.571 29.143-34.857-37.714-87.429-37.714-49.714 0-84.857 35.143t-35.143 84.857q0 16.571 2.857 27.429-73.714-4-138.286-37.143t-109.714-88.571q-16.571 28.571-16.571 60.571 0 65.143 52 100-26.857-0.571-57.143-14.857v1.143q0 42.857 28.571 76.286t70.286 41.429q-16.571 4.571-29.143 4.571-7.429 0-22.286-2.286 12 36 42.571 59.429t69.429 24q-66.286 51.429-149.143 51.429-14.857 0-28.571-1.714z"/>
  </symbol>
  <symbol id="icon-facebook" viewBox="0 0 1024 1024">
    <path d="M0 786.286v-548.571q0-68 48.286-116.286t116.286-48.286h548.571q68 0 116.286 48.286t48.286 116.286v548.571q0 68-48.286 116.286t-116.286 48.286h-109.714v-347.429h116l17.143-128h-133.143v-81.714q0-30.857 16-47.429t54.857-16.571l75.429-0.571v-118.286q-54.857-5.143-102.857-5.143-77.714 0-124.571 46t-46.857 128.857v94.857h-128v128h128v347.429h-310.857q-68 0-116.286-48.286t-48.286-116.286z"/>
  </symbol>
  <symbol id="icon-reddit" viewBox="0 0 1024 1024">
    <path d="M0 767.429v-510.857q0-76 53.714-129.714t129.143-53.714h512q75.429 0 129.143 53.714t53.714 129.714v510.857q0 76-53.714 129.714t-129.143 53.714h-512q-75.429 0-129.143-53.714t-53.714-129.714zM88.571 472.571q0 21.143 11.143 38.571t30 26q-4 14.286-4 30.857 0 56 42.286 103.714t115.143 75.429 159.143 27.714q85.714 0 158.571-27.714t115.143-75.429 42.286-103.714q0-15.429-3.429-30.857 20-8 32.571-26t12.571-40.286q0-29.143-20.571-50t-49.714-20.857q-34.286 0-56 27.429-86.286-61.143-214.286-65.714l47.429-151.429 117.714 28q0.571 28.571 20.857 48.571t48.286 20q28.571 0 49.143-20.286t20.571-48.857-20.571-49.143-49.143-20.571q-20.571 0-37.714 11.714t-25.714 30.571l-129.714-30.857q-5.143-1.143-10 1.429t-6.571 8.286l-54.286 172.571q-128 2.286-217.714 64.571-20.571-24.571-53.143-24.571-29.143 0-49.714 20.857t-20.571 50zM281.714 527.429q0-21.143 14.857-36t36-14.857 36 14.857 14.857 36-14.857 36.571-36 15.429-36-15.429-14.857-36.571zM320 663.429q0-6.286 4.571-10.286 4-4 10-4t10 4q28 29.143 98.286 29.143h1.143q69.714 0 98.857-29.143 4-4 10-4t10 4 4 10.286-4 10.286q-37.143 36.571-118.857 36.571h-1.143q-81.714 0-118.286-36.571-4.571-4-4.571-10.286zM504 527.429q0-21.143 14.857-36t36-14.857 36 14.857 14.857 36-14.857 36.571-36 15.429-36-15.429-14.857-36.571zM653.143 237.714q0-17.143 12-29.143t28.571-12q17.143 0 29.143 12t12 29.143q0 16.571-12 28.571t-29.143 12q-16.571 0-28.571-12t-12-28.571z"/>
  </symbol>
  {% endif %}
</svg>